<svg xmlns="http://www.w3.org/2000/svg" xmlns:xlink="http://www.w3.org/1999/xlink" width="376.939" height="300.514" version="1.1" viewBox="0 0 2945.2 2348.05" xml:space="preserve" style="shape-rendering:geometricPrecision;text-rendering:geometricPrecision;image-rendering:optimizeQuality;fill-rule:evenodd;clip-rule:evenodd"><defs><style type="text/css">.fil0{fill:url(#id0)}.fil2{fill:url(#id1)}.fil1{fill:url(#id2);fill-opacity:.4}</style><linearGradient id="id0" x1="996.81" x2="1114.99" y1="82.23" y2="2352.83" gradientUnits="userSpaceOnUse"><stop offset="0" style="stop-opacity:1;stop-color:#4fa8ff"/><stop offset="1" style="stop-opacity:1;stop-color:#086d86"/></linearGradient><linearGradient id="id1" x1="1472.6" x2="1588.83" y1="0" y2="1394.86" gradientUnits="userSpaceOnUse" xlink:href="#id0"/><linearGradient id="id2" x1="1178.25" x2="1308.57" y1="-1.32" y2="1764.56" gradientUnits="userSpaceOnUse" xlink:href="#id0"/></defs><g id="Layer_x0020_1"><metadata id="CorelCorpID_0Corel-Layer"/><g id="_2751625796800"><path d="M1104.45 1906.28l0 176.34c0,29.09 9.2,57.25 25.77,81.54l77.31 118.18c25.77,36.26 79.15,65.71 123.33,65.71l283.48 0c44.18,0 99.4,-29.45 123.33,-65.71l79.15 -118.18c12.88,-16.38 23.93,-52.65 23.93,-77.13l0 -323.79 -734.46 0 -1.84 143.03zm-589.03 -1026.76c0,-60.93 -49.7,-110.45 -110.44,-110.45l-294.52 0c-60.75,0 -110.45,49.51 -110.45,110.45 0,60.92 49.7,110.44 110.45,110.44l294.52 0c60.74,0 110.44,-49.15 110.44,-110.44zm2319.34 -110.45l-294.53 0c-60.74,0 -110.44,49.51 -110.44,110.45 0,60.92 49.7,110.44 110.44,110.44l294.53 0c60.74,0 110.44,-49.52 110.44,-110.44 0,-60.93 -49.7,-110.45 -110.44,-110.45zm-2230.98 -518.9l-255.86 -147.26c-33.14,-20.61 -75.47,-21.17 -112.29,-1.66 -33.13,20.07 -55.23,56.88 -55.23,96.63 0,40.32 22.1,77.14 57.07,96.09l255.86 147.26c33.13,20.99 75.47,21.36 110.45,1.65 34.97,-20.06 57.06,-56.87 57.06,-96.63 0,-40.13 -22.09,-76.94 -57.06,-96.08zm2103.97 1215.26l-255.86 -147.26c-33.13,-20.8 -75.47,-21.35 -110.44,-1.84 -34.97,20.25 -57.06,56.88 -57.06,96.64 1.84,40.31 23.93,77.13 57.06,96.09l255.86 147.26c51.55,29.45 119.65,11.04 149.11,-41.41 29.45,-52.1 12.88,-118.73 -38.66,-149.47zm-2214.41 -147.26l-255.86 147.26c-34.97,18.96 -57.07,55.77 -57.07,96.09 0,39.57 22.1,76.39 55.23,96.63 34.97,19.51 79.15,18.96 112.29,-1.84l255.86 -147.26c51.54,-31.11 68.1,-97.74 38.65,-149.47 -31.29,-52.46 -97.56,-70.87 -149.1,-41.41zm1903.33 -862.02c20.25,0 38.66,-5.16 55.22,-14.92l255.86 -147.26c51.54,-31.11 68.11,-97.75 38.66,-149.66 -29.46,-52.27 -97.56,-70.68 -149.11,-41.41l-255.86 147.26c-42.34,24.85 -62.59,76.02 -51.54,124.25 14.73,48.41 57.06,81.73 106.76,81.73z" class="fil0"/><path d="M1470.75 0c-469.39,1.28 -808.09,377.9 -808.09,805.87 0,196.04 71.79,385.45 200.65,532.9 75.47,86.88 195.12,267.83 239.3,420.98 0,1.11 1.84,2.21 1.84,3.5l736.3 0c0,-1.28 1.83,-2.39 1.83,-3.5 44.18,-153.15 163.83,-334.28 239.3,-420.98 130.7,-143.21 200.64,-332.81 200.64,-532.9 0,-443.98 -364.47,-806.98 -811.77,-805.87z" class="fil1"/><path d="M1161.66 61.46c95.9,-39.67 200.51,-61.46 310.94,-61.46 376.32,0 693.07,255.29 786.06,602.55 -15.99,9.15 -29.06,13.81 -46.5,10.17l-114.78 -22.09c-24.7,-5.38 -52.31,7.99 -65.38,33.42 -20.35,42.14 -69.74,59.13 -113.33,47.51l-52.31 -17c-27.61,-9.45 -58.12,-2.18 -78.46,18.6 -17.44,13.37 -17.44,31.82 0,48.53l122.05 121.76c17.44,18.16 27.61,39.67 27.61,68.73 0,44.6 -30.52,83.54 -74.1,94.44l-18.89 4.65c-14.53,3.2 -23.25,15.7 -23.25,29.79l0 44.03c0,49.98 -15.98,95.9 -46.5,139.48l-92.99 123.8c-21.8,29.5 -56.67,46.49 -92.99,46.49 -63.93,0 -116.24,-51.87 -116.24,-116.23l0 -174.36c0,-31.96 -26.15,-58.12 -58.12,-58.12l-116.24 0c-95.89,0 -174.36,-78.17 -174.36,-174.36l0 -101.71c0,-45.76 21.8,-88.63 58.12,-116.23l142.39 -107.23c17.44,-15.11 46.5,-23.54 71.2,-23.54 13.07,0 24.7,2.18 33.42,6.11l116.23 38.64c30.51,8.58 58.12,9.74 84.27,3.2l129.32 -32.26c36.33,-9.15 62.48,-42.57 62.48,-80.64 0,-31.24 -17.44,-60.01 -46.5,-74.25l-106.06 -53.03c-13.08,-6.83 -29.06,-7.26 -39.23,6.68l-14.53 14.09c-15.98,16.71 -39.23,26.16 -63.93,26.16 -15.99,0 -27.61,-3.34 -39.23,-9.44l-55.21 -27.61c-24.7,-12.35 -55.22,-5.81 -71.2,15.69l-49.4 61.75c-20.34,21.8 -56.67,27.17 -79.91,4.36 -10.17,-9.88 -15.98,-23.68 -15.98,-37.92l0 -150.39c0,-20.2 -5.81,-39.96 -14.53,-57.54l-58.12 -99.82c-2.91,-4.94 -4.36,-10.17 -5.81,-15.4z" class="fil2"/></g></g></svg>