<?xml version="1.0" encoding="UTF-8"?>
<!DOCTYPE svg PUBLIC "-//W3C//DTD SVG 1.1//EN" "http://www.w3.org/Graphics/SVG/1.1/DTD/svg11.dtd">
<!-- Creator: CorelDRAW 2018 (64-Bit) -->
<svg xmlns="http://www.w3.org/2000/svg" xml:space="preserve" width="50.8611mm" height="58.9429mm" version="1.1" style="shape-rendering:geometricPrecision; text-rendering:geometricPrecision; image-rendering:optimizeQuality; fill-rule:evenodd; clip-rule:evenodd"
viewBox="0 0 4137.6 4795.06"
 xmlns:xlink="http://www.w3.org/1999/xlink">
 <defs>
  <style type="text/css">
   <![CDATA[
    .fil2 {fill:url(#id0)}
    .fil0 {fill:url(#id1)}
    .fil3 {fill:url(#id2);fill-rule:nonzero}
    .fil1 {fill:url(#id3);fill-opacity:0.400000}
   ]]>
  </style>
  <linearGradient id="id0" gradientUnits="userSpaceOnUse" x1="2068.79" y1="0.01" x2="2220.44" y2="1819.76">
   <stop offset="0" style="stop-opacity:1; stop-color:#4FA8FF"/>
   <stop offset="1" style="stop-opacity:1; stop-color:#086D86"/>
  </linearGradient>
  <linearGradient id="id1" gradientUnits="userSpaceOnUse" xlink:href="#id0" x1="1448.07" y1="107.29" x2="1602.25" y2="3069.54">
  </linearGradient>
  <linearGradient id="id2" gradientUnits="objectBoundingBox" xlink:href="#id0" x1="35.5052%" y1="0%" x2="36.1976%" y2="100.324%">
  </linearGradient>
  <linearGradient id="id3" gradientUnits="userSpaceOnUse" xlink:href="#id0" x1="1684.78" y1="-1.71" x2="1854.8" y2="2302.09">
  </linearGradient>
 </defs>
 <g id="Layer_x0020_1">
  <metadata id="CorelCorpID_0Corel-Layer"/>
  <g id="_2751631940752">
   <g>
    <path class="fil0" d="M1588.5 2486.96l0 230.06c0,37.95 12.01,74.69 33.63,106.38l100.85 154.18c33.62,47.31 103.27,85.73 160.9,85.73l369.82 0c57.64,0 129.68,-38.42 160.9,-85.73l103.26 -154.18c16.81,-21.36 31.22,-68.68 31.22,-100.61l0 -422.42 -958.18 0 -2.41 186.59zm-768.47 -1339.53c0,-79.49 -64.84,-144.09 -144.09,-144.09l-384.24 0c-79.24,0 -144.09,64.6 -144.09,144.09 0,79.49 64.84,144.09 144.09,144.09l384.24 0c79.25,0 144.09,-64.12 144.09,-144.09zm3025.85 -144.09l-384.24 0c-79.25,0 -144.09,64.6 -144.09,144.09 0,79.49 64.84,144.09 144.09,144.09l384.24 0c79.24,0 144.09,-64.6 144.09,-144.09 0,-79.49 -64.84,-144.09 -144.09,-144.09zm-2910.57 -676.97l-333.81 -192.12c-43.23,-26.89 -98.46,-27.62 -146.49,-2.16 -43.22,26.18 -72.05,74.2 -72.05,126.08 0,52.59 28.83,100.62 74.45,125.36l333.81 192.11c43.22,27.38 98.46,27.86 144.09,2.16 45.63,-26.16 74.44,-74.2 74.44,-126.07 0,-52.35 -28.81,-100.39 -74.44,-125.35zm2744.87 1585.45l-333.81 -192.12c-43.22,-27.14 -98.46,-27.85 -144.09,-2.41 -45.62,26.42 -74.44,74.21 -74.44,126.08 2.41,52.59 31.22,100.62 74.44,125.36l333.81 192.12c67.24,38.42 156.1,14.4 194.53,-54.03 38.41,-67.96 16.81,-154.9 -50.44,-195zm-2888.96 -192.12l-333.81 192.12c-45.62,24.73 -74.45,72.76 -74.45,125.35 0,51.63 28.83,99.66 72.05,126.07 45.63,25.46 103.26,24.75 146.49,-2.39l333.81 -192.12c67.24,-40.59 88.85,-127.52 50.43,-195 -40.83,-68.45 -127.28,-92.46 -194.52,-54.03zm2483.12 -1124.6c26.41,0 50.43,-6.73 72.04,-19.46l333.81 -192.11c67.24,-40.59 88.85,-127.53 50.44,-195.24 -38.43,-68.2 -127.28,-92.22 -194.53,-54.03l-333.81 192.12c-55.23,32.42 -81.65,99.17 -67.24,162.1 19.22,63.16 74.44,106.63 139.29,106.63z"/>
    <path class="fil1" d="M2066.39 0.01c-612.37,1.68 -1054.24,493.03 -1054.24,1051.36 0,255.75 93.66,502.86 261.76,695.23 98.46,113.35 254.56,349.41 312.19,549.21 0,1.45 2.4,2.89 2.4,4.56l960.59 0c0,-1.68 2.39,-3.12 2.39,-4.56 57.64,-199.8 213.73,-436.1 312.19,-549.21 170.51,-186.83 261.76,-434.19 261.76,-695.23 0,-579.24 -475.5,-1052.8 -1059.05,-1051.36z"/>
    <path class="fil2" d="M1663.14 80.2c125.11,-51.75 261.59,-80.19 405.65,-80.19 490.95,0 904.19,333.06 1025.51,786.1 -20.85,11.94 -37.91,18.01 -60.66,13.27l-149.75 -28.81c-32.22,-7.01 -68.25,10.43 -85.3,43.6 -26.54,54.97 -90.98,77.15 -147.86,61.98l-68.24 -22.18c-36.02,-12.32 -75.83,-2.85 -102.36,24.27 -22.75,17.43 -22.75,41.51 0,63.31l159.23 158.85c22.75,23.69 36.02,51.75 36.02,89.66 0,58.19 -39.81,108.99 -96.68,123.21l-24.65 6.06c-18.95,4.17 -30.33,20.48 -30.33,38.86l0 57.43c0,65.21 -20.84,125.12 -60.66,181.97l-121.32 161.51c-28.43,38.48 -73.93,60.65 -121.31,60.65 -83.41,0 -151.65,-67.67 -151.65,-151.64l0 -227.47c0,-41.71 -34.11,-75.84 -75.82,-75.84l-151.65 0c-125.11,0 -227.47,-101.97 -227.47,-227.47l0 -132.69c0,-59.71 28.44,-115.62 75.83,-151.64l185.76 -139.9c22.75,-19.71 60.66,-30.71 92.89,-30.71 17.05,0 32.22,2.85 43.6,7.96l151.65 50.42c39.81,11.19 75.83,12.7 109.95,4.17l168.71 -42.08c47.4,-11.94 81.51,-55.54 81.51,-105.21 0,-40.75 -22.75,-78.28 -60.66,-96.86l-138.38 -69.18c-17.06,-8.92 -37.91,-9.48 -51.18,8.72l-18.96 18.38c-20.84,21.8 -51.18,34.13 -83.4,34.13 -20.85,0 -36.02,-4.36 -51.18,-12.32l-72.03 -36.01c-32.23,-16.12 -72.04,-7.58 -92.89,20.48l-64.45 80.55c-26.54,28.44 -73.93,35.45 -104.26,5.69 -13.27,-12.89 -20.84,-30.91 -20.84,-49.47l0 -196.2c0,-26.35 -7.59,-52.13 -18.96,-75.06l-75.82 -130.23c-3.8,-6.44 -5.69,-13.27 -7.58,-20.09z"/>
   </g>
   <path class="fil3" d="M233.33 4364.29c9.69,7.97 22.23,18.52 37.32,31.91 15.1,13.39 32.19,26.78 51.57,39.89 29.06,19.37 57.83,34.48 86.32,45.3 28.49,10.83 58.4,16.25 89.75,16.25 29.06,0 53.55,-3.42 73.22,-9.97 19.65,-6.56 35.04,-15.1 46.44,-25.93 11.4,-10.83 19.66,-23.36 24.5,-37.61 4.84,-14.24 7.13,-29.34 7.13,-45.3 0,-17.66 -6.56,-33.62 -19.95,-47.58 -13.39,-13.96 -29.91,-26.21 -49.28,-37.03 -19.38,-10.83 -39.6,-20.23 -60.69,-27.92 -21.08,-7.7 -39.32,-13.96 -54.7,-19.09 -68.38,-23.93 -128.2,-49.86 -179.48,-77.49 -51.28,-27.63 -94.02,-58.4 -128.21,-92.3 -34.18,-33.91 -59.83,-71.23 -76.92,-111.97 -17.1,-40.74 -25.64,-86.04 -25.64,-136.18 0,-52.99 10.83,-101.14 32.19,-144.44 21.37,-43.31 51.85,-80.34 91.74,-111.12 39.6,-30.77 87.46,-54.7 143.31,-71.51 56.12,-16.81 118.51,-25.07 187.46,-25.07 51.85,0 101.71,5.7 149.29,17.38 47.58,11.68 94.3,30.48 140.46,56.12 19.37,11.4 37.89,23.07 55.27,35.32 17.38,12.25 32.48,24.22 45.58,35.62 13.11,11.4 23.65,22.23 31.34,32.48 7.7,10.26 11.4,19.09 11.4,26.5 0,7.41 -1.71,14.24 -5.41,20.52 -3.7,6.26 -9.4,13.39 -16.81,21.36l-130.77 139.32c-9.69,9.68 -19.37,14.53 -29.06,14.53 -7.98,0 -15.1,-2.28 -21.66,-6.84 -6.55,-4.56 -13.96,-10.25 -21.93,-17.09l-7.7 -6.83c-11.4,-9.69 -23.93,-19.66 -37.89,-29.92 -13.96,-10.25 -29.06,-19.65 -45.01,-27.92 -15.95,-8.26 -32.76,-15.1 -50.43,-20.51 -17.66,-5.42 -35.61,-7.98 -53.85,-7.98 -18.8,0 -36.46,1.71 -52.99,4.85 -16.52,3.13 -31.05,7.97 -43.59,14.81 -12.54,6.83 -22.5,15.95 -29.91,27.07 -7.41,11.1 -11.11,24.49 -11.11,40.46 0,16.24 3.99,29.91 11.97,41.59 7.98,11.68 19.94,22.5 35.9,32.48 15.95,9.97 35.89,19.65 59.54,28.49 23.65,8.83 51,18.23 82.34,28.49 60.4,19.95 116.24,41.03 167.23,62.97 51,21.94 94.87,47.86 131.91,78.06 37.04,29.91 66.1,65.52 86.9,107.41 20.79,41.59 31.05,92.02 31.05,151.56 0,62.67 -12.82,119.66 -38.46,170.65 -25.93,51 -60.96,94.59 -105.98,130.49 -44.73,36.18 -97.43,63.82 -157.83,83.47 -60.69,19.66 -125.65,29.63 -195.16,29.63 -65.53,0 -129.91,-11.68 -193.16,-35.32 -63.25,-23.36 -122.22,-54.99 -176.92,-94.59 -22.79,-16.53 -41.88,-32.77 -57.55,-49.01 -15.67,-15.95 -28.2,-28.77 -37.32,-38.46l-2.56 -2.85c-0.57,-1.14 -1.14,-1.71 -1.71,-1.99 -0.57,-0.28 -1.14,-0.85 -1.72,-1.42 -0.57,-1.14 -1.14,-1.71 -1.71,-1.99 -0.57,-0.28 -1.14,-0.85 -1.71,-1.42 -13.11,-14.25 -19.65,-25.64 -19.65,-34.19 0,-9.97 6.55,-20.8 19.65,-32.76l147.86 -141.03c11.97,-8.54 21.66,-12.82 29.06,-12.82 5.13,0 10.54,1.71 16.24,5.13 5.7,3.42 12.54,8.54 20.52,15.38z"/>
   <path id="1" class="fil3" d="M1196.57 3542.07c0,-10.26 3.14,-19.08 9.4,-26.5 6.26,-7.4 15.67,-11.11 28.2,-11.11l252.14 0c8.54,0 17.66,3.42 27.35,10.26 9.68,6.84 14.53,15.95 14.53,27.35l0 1194.87c0,25.07 -13.96,37.61 -41.88,37.61l-252.14 0c-25.07,0 -37.61,-12.54 -37.61,-37.61l0 -1194.87z"/>
   <path id="2" class="fil3" d="M2152.99 4756.6c-6.27,-10.26 -11.68,-20.8 -16.52,-31.63 -4.85,-10.82 -9.69,-21.93 -14.24,-33.33l-438.47 -1148.72c0,-2.85 -0.28,-5.41 -1.14,-7.69 -0.85,-2.29 -1.42,-4.56 -1.42,-6.84 0,-15.95 10.54,-23.93 31.62,-23.93l275.22 0c21.65,0 36.46,10.83 44.44,32.48l260.68 778.34c23.36,-64.96 45.87,-129.91 67.24,-194.58 21.37,-64.67 42.45,-129.63 63.25,-194.59 20.79,-64.95 41.88,-129.91 63.25,-194.58 21.36,-64.67 43.59,-129.62 66.94,-194.58 7.98,-21.66 23.65,-32.48 47.01,-32.48l269.23 0c13.11,0 22.5,2.29 27.92,7.13 5.41,4.84 7.97,11.4 7.97,19.37 0,4.56 -0.28,7.7 -0.85,9.4l0 2.56 -441.02 1148.72c-2.85,7.97 -6.27,16.81 -10.26,26.5 -3.99,9.69 -8.55,18.52 -13.68,26.78 -5.13,8.26 -11.11,15.38 -17.95,21.08 -6.84,5.7 -14.53,8.55 -23.08,8.55l-211.11 0c-17.66,0 -29.34,-5.98 -35.04,-17.95z"/>
   <path id="3" class="fil3" d="M3387.17 4268.28c0,42.16 5.99,78.06 17.67,107.41 11.67,29.34 27.07,53.28 46.15,71.79 19.08,18.52 41.31,32.19 66.67,40.74 25.36,8.55 51.57,12.82 78.92,12.82 28.49,0 55.55,-5.13 80.91,-15.1 25.36,-9.97 47.57,-24.79 66.67,-44.45 19.08,-19.65 34.18,-44.16 45.3,-73.22 11.11,-29.06 16.52,-62.4 16.52,-100l0 -726.21c0,-10.26 3.7,-19.08 10.83,-26.5 7.12,-7.4 16.52,-11.11 28.49,-11.11l250.42 0c13.11,0 23.36,3.99 30.78,11.68 7.4,7.7 11.11,16.24 11.11,25.93l0 721.65c0,99.72 -14.82,183.48 -44.17,251.57 -29.34,67.81 -68.66,122.51 -118.23,163.82 -49.86,41.31 -107.12,70.94 -172.37,88.89 -65.53,17.95 -133.9,27.07 -205.7,27.07 -72.09,0 -140.75,-9.4 -206.27,-27.93 -65.53,-18.52 -123.08,-48.71 -172.94,-90.59 -49.58,-41.88 -88.89,-96.86 -118.24,-164.39 -29.34,-67.52 -44.16,-150.43 -44.16,-248.44l0 -721.65c0,-9.69 3.42,-18.23 9.97,-25.93 6.55,-7.69 14.53,-11.68 24.21,-11.68l256.41 0c8.55,0 17.67,3.71 27.07,10.83 9.4,7.13 13.96,15.95 13.96,26.78l0 726.21z"/>
  </g>
 </g>
</svg>
