<svg xmlns="http://www.w3.org/2000/svg" xmlns:xlink="http://www.w3.org/1999/xlink" width="402.372" height="142.32" version="1.1" viewBox="0 0 163776.47 57928.16" xml:space="preserve" style="shape-rendering:geometricPrecision;text-rendering:geometricPrecision;image-rendering:optimizeQuality;fill-rule:evenodd;clip-rule:evenodd"><defs><style type="text/css">.fil2{fill:url(#id0)}.fil0{fill:url(#id1)}.fil3{fill:url(#id2);fill-rule:nonzero}.fil1{fill:url(#id3);fill-opacity:.4}</style><linearGradient id="id0" x1="36329.78" x2="39197.61" y1=".31" y2="34412.36" gradientUnits="userSpaceOnUse"><stop offset="0" style="stop-opacity:1;stop-color:#4fa8ff"/><stop offset="1" style="stop-opacity:1;stop-color:#086d86"/></linearGradient><linearGradient id="id1" x1="24591.88" x2="27507.25" y1="2028.95" y2="58046" gradientUnits="userSpaceOnUse" xlink:href="#id0"/><linearGradient id="id2" x1="35.505%" x2="36.197%" y1="0%" y2="100.324%" gradientUnits="objectBoundingBox" xlink:href="#id0"/><linearGradient id="id3" x1="29068.12" x2="32283.16" y1="-32.3" y2="43533.12" gradientUnits="userSpaceOnUse" xlink:href="#id0"/></defs><g id="Layer_x0020_1"><metadata id="CorelCorpID_0Corel-Layer"/><g id="_2409233178288"><g><path d="M27247.42 47029.13l0 4350.5c0,717.65 227.06,1412.38 635.96,2011.72l1907.11 2915.67c635.81,894.56 1952.8,1621.13 3042.74,1621.13l6993.42 0c1089.93,0 2452.31,-726.57 3042.74,-1621.13l1952.65 -2915.67c317.83,-403.98 590.43,-1298.69 590.43,-1902.65l0 -7988.13 -18119.51 0 -45.54 3528.55zm-14531.88 -25330.92c0,-1503.14 -1226.08,-2724.76 -2724.76,-2724.76l-7266.02 0c-1498.52,0 -2724.76,1221.62 -2724.76,2724.76 0,1503.14 1226.23,2724.76 2724.76,2724.76l7266.02 0c1498.68,0 2724.76,-1212.54 2724.76,-2724.76zm57219.59 -2724.76l-7266.02 0c-1498.68,0 -2724.76,1221.62 -2724.76,2724.76 0,1503.14 1226.08,2724.76 2724.76,2724.76l7266.02 0c1498.52,0 2724.76,-1221.62 2724.76,-2724.76 0,-1503.14 -1226.23,-2724.76 -2724.76,-2724.76zm-55039.72 -12801.68l-6312.38 -3633.01c-817.49,-508.58 -1861.89,-522.28 -2770.14,-40.92 -817.33,495.05 -1362.53,1403.15 -1362.53,2384.16 0,994.55 545.2,1902.81 1407.91,2370.62l6312.38 3632.86c817.33,517.81 1861.89,526.89 2724.76,40.77 862.87,-494.74 1407.76,-1403.15 1407.76,-2384.01 0,-989.94 -544.89,-1898.35 -1407.76,-2370.47zm51906.22 29981.25l-6312.38 -3633.01c-817.33,-513.2 -1861.89,-526.74 -2724.76,-45.54 -862.72,499.66 -1407.76,1403.3 -1407.76,2384.16 45.54,994.55 590.43,1902.81 1407.76,2370.62l6312.38 3633.01c1271.61,726.57 2951.82,272.29 3678.54,-1021.78 726.42,-1285.15 317.83,-2929.21 -953.79,-3687.47zm-54630.98 -3633.01l-6312.38 3633.01c-862.72,467.66 -1407.91,1375.92 -1407.91,2370.47 0,976.25 545.2,1884.65 1362.53,2384.01 862.87,481.51 1952.65,467.97 2770.14,-45.23l6312.38 -3633.01c1271.46,-767.49 1680.21,-2411.39 953.63,-3687.47 -772.11,-1294.38 -2406.93,-1748.35 -3678.39,-1021.78zm46956.37 -21266.55c499.35,0 953.63,-127.22 1362.22,-367.98l6312.38 -3632.86c1271.61,-767.65 1680.21,-2411.55 953.79,-3692.08 -726.72,-1289.77 -2406.93,-1743.89 -3678.54,-1021.78l-6312.38 3633.01c-1044.4,613.04 -1544.06,1875.42 -1271.46,3065.35 363.36,1194.39 1407.76,2016.34 2633.99,2016.34z" class="fil0"/><path d="M36284.4 0.15c-11580.06,31.84 -19936.02,9323.28 -19936.02,19881.56 0,4836.32 1771.12,9509.27 4950.01,13146.89 1861.89,2143.41 4813.71,6607.44 5903.64,10385.67 0,27.38 45.38,54.61 45.38,86.3l18165.05 0c0,-31.69 45.23,-58.92 45.23,-86.3 1089.93,-3778.23 4041.75,-8246.73 5903.64,-10385.67 3224.42,-3533.02 4950.01,-8210.73 4950.01,-13146.89 0,-10953.49 -8991.76,-19908.79 -20026.93,-19881.56z" class="fil1"/><path d="M28658.87 1516.52c2365.86,-978.56 4946.78,-1516.37 7670.92,-1516.37 9284.05,0 17098.5,6298.23 19392.66,14865.4 -394.28,225.83 -716.88,340.59 -1147.01,250.91l-2831.83 -544.89c-609.35,-132.61 -1290.54,197.22 -1613.13,824.57 -501.82,1039.48 -1720.51,1458.83 -2795.98,1172.08l-1290.38 -419.36c-681.19,-233.06 -1433.91,-53.84 -1935.73,458.9 -430.13,329.67 -430.13,784.88 0,1197.16l3011.05 3003.97c430.28,447.97 681.19,978.56 681.19,1695.44 0,1100.39 -752.88,2061.11 -1828.2,2330.01l-466.13 114.61c-358.29,78.92 -573.5,387.21 -573.5,734.88l0 1086.09c0,1233.16 -394.13,2366.01 -1147.01,3441.17l-2294.17 3054.28c-537.66,727.65 -1398.07,1146.85 -2294.01,1146.85 -1577.29,0 -2867.83,-1279.61 -2867.83,-2867.52l0 -4301.43c0,-788.72 -645.04,-1434.07 -1433.76,-1434.07l-2867.67 0c-2365.86,0 -4301.58,-1928.34 -4301.58,-4301.43l0 -2509.23c0,-1129.16 537.81,-2186.48 1433.91,-2867.52l3512.86 -2645.53c430.28,-372.75 1147.01,-580.73 1756.51,-580.73 322.44,0 609.35,53.84 824.41,150.61l2867.67 953.48c752.72,211.53 1433.91,240.14 2079.1,78.92l3190.27 -795.8c896.25,-225.83 1541.29,-1050.24 1541.29,-1989.57 0,-770.57 -430.13,-1480.37 -1147.01,-1831.73l-2616.76 -1308.23c-322.6,-168.61 -716.88,-179.22 -967.79,164.91l-358.59 347.52c-394.13,412.28 -967.79,645.35 -1577.13,645.35 -394.28,0 -681.19,-82.46 -967.79,-233.06l-1362.07 -681.04c-609.5,-304.75 -1362.38,-143.38 -1756.51,387.21l-1218.85 1523.29c-501.82,537.81 -1398.07,670.42 -1971.57,107.69 -250.91,-243.83 -394.13,-584.43 -394.13,-935.48l0 -3710.24c0,-498.28 -143.53,-985.79 -358.59,-1419.45l-1433.76 -2462.62c-71.84,-121.84 -107.53,-250.91 -143.38,-379.98z" class="fil2"/></g><path d="M89945.75 33279.51c183.22,150.76 420.28,350.13 705.8,603.35 285.52,253.22 608.73,506.43 975.17,754.26 549.5,366.29 1093.63,651.96 1632.36,856.56 538.74,204.76 1104.39,307.21 1697.13,307.21 549.5,0 1012.71,-64.77 1384.53,-188.6 371.67,-123.99 662.57,-285.52 878.1,-490.28 215.53,-204.76 371.82,-441.82 463.36,-711.19 91.53,-269.37 134.76,-554.89 134.76,-856.56 0,-333.98 -123.99,-635.81 -377.21,-899.79 -253.22,-263.98 -565.66,-495.66 -931.94,-700.26 -366.44,-204.76 -748.88,-382.59 -1147.62,-527.97 -398.59,-145.53 -743.49,-263.98 -1034.4,-361.05 -1293,-452.59 -2424.31,-942.87 -3394.1,-1465.45 -969.79,-522.58 -1777.89,-1104.39 -2424.47,-1745.43 -646.42,-641.19 -1131.32,-1346.99 -1454.53,-2117.41 -323.36,-770.41 -484.89,-1626.98 -484.89,-2575.23 0,-1002.09 204.76,-1912.5 608.73,-2731.37 404.13,-819.03 980.56,-1519.29 1734.82,-2101.26 748.88,-581.81 1653.9,-1034.4 2709.99,-1352.23 1061.32,-317.83 2241.09,-474.12 3544.86,-474.12 980.56,0 1923.42,107.84 2823.06,328.75 899.79,220.91 1783.28,576.43 2656.15,1061.32 366.29,215.53 716.42,436.28 1045.17,667.96 328.6,231.68 614.12,457.97 861.95,673.5 247.83,215.53 447.2,420.28 592.58,614.12 145.53,193.99 215.53,361.05 215.53,501.05 0,140.15 -32.31,269.37 -102.3,387.98 -70,118.45 -177.84,253.22 -317.83,403.98l-2472.93 2634.61c-183.22,183.07 -366.29,274.75 -549.5,274.75 -150.91,0 -285.52,-43.07 -409.51,-129.38 -123.84,-86.15 -263.98,-193.83 -414.74,-323.21l-145.53 -129.22c-215.53,-183.22 -452.59,-371.82 -716.57,-565.81 -263.98,-193.83 -549.5,-371.67 -851.18,-527.97 -301.67,-156.14 -619.5,-285.52 -953.63,-387.82 -333.98,-102.46 -673.34,-150.91 -1018.25,-150.91 -355.52,0 -689.5,32.31 -1002.09,91.69 -312.44,59.23 -587.19,150.76 -824.26,280.14 -237.06,129.22 -425.51,301.67 -565.66,511.81 -140.15,209.99 -210.14,463.2 -210.14,765.03 0,307.06 75.38,565.66 226.29,786.57 150.91,220.91 377.05,425.51 678.88,614.12 301.67,188.6 678.73,371.67 1125.93,538.74 447.2,167.07 964.4,344.75 1556.98,538.74 1142.24,377.21 2198.17,775.8 3162.42,1190.7 964.4,414.9 1794.04,905.02 2494.46,1476.22 700.42,565.66 1249.92,1239 1643.28,2031.11 393.21,786.57 587.19,1740.05 587.19,2866.13 0,1185.16 -242.45,2262.79 -727.34,3227.03 -490.28,964.4 -1152.85,1788.66 -2004.19,2467.54 -845.79,684.27 -1842.5,1206.85 -2984.59,1578.52 -1147.62,371.82 -2376.01,560.27 -3690.54,560.27 -1239.16,0 -2456.62,-220.91 -3652.7,-667.96 -1196.08,-441.82 -2311.24,-1039.78 -3345.64,-1788.66 -431.05,-312.6 -791.95,-619.65 -1088.24,-926.71 -296.29,-301.67 -533.35,-544.12 -705.8,-727.34l-48.46 -53.84c-10.77,-21.54 -21.54,-32.31 -32.31,-37.69 -10.77,-5.38 -21.54,-16.15 -32.46,-26.92 -10.77,-21.54 -21.54,-32.31 -32.31,-37.69 -10.77,-5.38 -21.54,-16.15 -32.31,-26.92 -247.83,-269.52 -371.67,-484.89 -371.67,-646.58 0,-188.6 123.84,-393.36 371.67,-619.5l2796.14 -2666.91c226.29,-161.53 409.51,-242.45 549.5,-242.45 97.07,0 199.37,32.31 307.06,97.07 107.84,64.61 237.06,161.53 387.98,290.91z" class="fil3"/><path id="1" d="M108160.94 17731.07c0,-193.99 59.38,-360.9 177.84,-501.05 118.45,-139.99 296.29,-210.14 533.35,-210.14l4768.02 0c161.53,0 333.98,64.77 517.2,193.99 183.07,129.38 274.75,301.67 274.75,517.2l0 22595.24c0,474.12 -263.98,711.19 -791.95,711.19l-4768.02 0c-474.12,0 -711.19,-237.06 -711.19,-711.19l0 -22595.24z" class="fil3"/><path id="2" d="M126246.92 40698.13c-118.61,-193.99 -220.91,-393.36 -312.44,-598.12 -91.69,-204.6 -183.22,-414.74 -269.37,-630.27l-8291.49 -21722.52c0,-53.84 -5.38,-102.3 -21.54,-145.38 -16.15,-43.23 -26.92,-86.3 -26.92,-129.38 0,-301.67 199.37,-452.59 597.96,-452.59l5204.45 0c409.36,0 689.5,204.76 840.41,614.27l4929.55 14718.64c441.82,-1228.39 867.49,-2456.62 1271.46,-3679.62 404.13,-1223 802.72,-2451.39 1196.08,-3679.78 393.21,-1228.23 791.95,-2456.62 1196.08,-3679.62 403.98,-1223 824.26,-2451.24 1265.92,-3679.62 150.91,-409.51 447.2,-614.27 889.02,-614.27l5091.23 0c247.83,0 425.51,43.23 527.97,134.76 102.3,91.53 150.76,215.53 150.76,366.29 0,86.3 -5.38,145.53 -16.15,177.84l0 48.46 -8339.8 21722.52c-53.84,150.76 -118.61,317.83 -193.99,501.05 -75.38,183.22 -161.68,350.13 -258.6,506.43 -96.92,156.14 -210.14,290.91 -339.36,398.59 -129.38,107.84 -274.75,161.68 -436.43,161.68l-3992.22 0c-333.98,0 -554.89,-113.07 -662.57,-339.36z" class="fil3"/><path id="3" d="M149585.65 31463.93c0,797.34 113.22,1476.06 334.13,2031.11 220.76,554.89 511.81,1007.48 872.72,1357.61 360.9,350.13 781.18,608.73 1260.69,770.41 479.51,161.68 975.17,242.45 1492.37,242.45 538.74,0 1050.55,-97.07 1530.06,-285.52 479.51,-188.6 899.64,-468.74 1260.69,-840.56 360.9,-371.67 646.42,-835.03 856.56,-1384.53 210.14,-549.5 312.44,-1179.93 312.44,-1890.96l0 -13732.85c0,-193.99 70,-360.9 204.76,-501.05 134.61,-139.99 312.44,-210.14 538.74,-210.14l4735.56 0c247.83,0 441.82,75.53 581.96,220.91 139.99,145.53 210.14,307.06 210.14,490.28l0 13646.55c0,1885.73 -280.29,3469.63 -835.18,4757.25 -554.89,1282.23 -1298.38,2316.63 -2235.71,3097.81 -942.87,781.18 -2025.72,1341.46 -3259.49,1680.97 -1239.16,339.36 -2532.15,511.81 -3889.76,511.81 -1363.15,0 -2661.53,-177.84 -3900.53,-528.12 -1239.16,-350.13 -2327.55,-921.17 -3270.26,-1713.13 -937.48,-791.95 -1680.97,-1831.73 -2235.86,-3108.58 -554.89,-1276.85 -835.03,-2844.6 -835.03,-4698.02l0 -13646.55c0,-183.22 64.61,-344.75 188.6,-490.28 123.84,-145.38 274.75,-220.91 457.82,-220.91l4848.78 0c161.68,0 334.13,70.15 511.81,204.76 177.84,134.76 263.98,301.67 263.98,506.43l0 13732.85z" class="fil3"/></g></g></svg>